# xmcd
#
# Track frame offsets:
#	150
#	13221
#	28667
#	43439
#	58162
#	76778
#	93813
#	110422
#	127978
#	140230
#	156467
#	177857
#	193308
#	209653
#	226037
#	236066
#	254170
#	267847
#	286506
#	305860
#	317716
#	334690
#
# Disc length: 4708 seconds
#
# Revision: 0
# Processed by: cddbd v1.5.2PL0 Copyright (c) Steve Scherf et al.
# Submitted via: audiograbber 1.83.01
#
DISCID=4c126216
DTITLE=Diamondback Records - Diamondback Records Compilation 019
DYEAR=2016
DGENRE=
TTITLE0=Butterflies -Allen Karl
TTITLE1=You're So Good When You're Bad -B. Jeff Stone
TTITLE2=Rock-a-Bye True Love -Donna Conningham
TTITLE3=If You Ever Change Your Mind -Dennis Blair
TTITLE4=Jesus Money -The Long and Short Of It
TTITLE5=An Old Flame -Mitch Snow
TTITLE6=The Way You Make Me Feel -Allen Karl and Donna Cunningham
TTITLE7=Is Anybody Home -Wendy Ford
TTITLE8=Don't Say Goodbye -Rex Allen Jr
TTITLE9=You Don't Love me -Crawford Boyd
TTITLE10=11  I Don't Know You Anymore -Glenn Erickson
TTITLE11=Will You Ever Learn -Terry Gorka
TTITLE12=Children Don't Forget -Peter Trenholm
TTITLE13=Livin Like Tomorrow Never Comes -Phillip Clarkson
TTITLE14=Widders of Bowling Green -Bryan Chalker
TTITLE15=Deja Vu -Shari Cyrkin
TTITLE16=Making Movies -Dennis Blair
TTITLE17=Play Me The Waltz Of The Angels -Dolly Dunn
TTITLE18=Think Of You -Ryan Somerville
TTITLE19=Barstolol Paradise -Hermann Lammers Meyer
TTITLE20=The Day That Waylon Died -Teddy Grimstad
TTITLE21=She Believes -Glenn Erickson
EXTD=
EXTT0=
EXTT1=
EXTT2=
EXTT3=
EXTT4=
EXTT5=
EXTT6=
EXTT7=
EXTT8=
EXTT9=
EXTT10=
EXTT11=
EXTT12=
EXTT13=
EXTT14=
EXTT15=
EXTT16=
EXTT17=
EXTT18=
EXTT19=
EXTT20=
EXTT21=
PLAYORDER=
